<svg width="180" height="180" viewBox="0 0 180 180" fill="none" xmlns="http://www.w3.org/2000/svg">
<circle cx="90" cy="90" r="90" fill="url(#paint0_linear_457_36)"/>
<path d="M93.4271 64.3884C95.2875 63.2165 96.5278 61.0904 96.5278 58.6964C96.5278 54.9967 93.6066 52 90 52C86.3934 52 83.4722 54.9967 83.4722 58.6964C83.4722 61.1071 84.7125 63.2165 86.5729 64.3884L77.2219 83.5737C75.7368 86.6205 71.8854 87.4911 69.2906 85.365L54.75 73.4286C55.566 72.3069 56.0556 70.9174 56.0556 69.4107C56.0556 65.7109 53.1344 62.7143 49.5278 62.7143C45.9212 62.7143 43 65.7109 43 69.4107C43 73.1105 45.9212 76.1071 49.5278 76.1071C49.5604 76.1071 49.6094 76.1071 49.642 76.1071L57.1 118.194C57.9976 123.283 62.3222 127 67.3812 127H112.619C117.661 127 121.986 123.3 122.9 118.194L130.358 76.1071C130.391 76.1071 130.44 76.1071 130.472 76.1071C134.079 76.1071 137 73.1105 137 69.4107C137 65.7109 134.079 62.7143 130.472 62.7143C126.866 62.7143 123.944 65.7109 123.944 69.4107C123.944 70.9174 124.434 72.3069 125.25 73.4286L110.709 85.365C108.115 87.4911 104.263 86.6205 102.778 83.5737L93.4271 64.3884Z" fill="white"/>
<defs>
<linearGradient id="paint0_linear_457_36" x1="90" y1="0" x2="90" y2="180" gradientUnits="userSpaceOnUse">
<stop offset="0.166753" stop-color="#E8A603"/>
<stop offset="0.53" stop-color="#F2B702"/>
<stop offset="1" stop-color="#FBC909" stop-opacity="0.69"/>
</linearGradient>
</defs>
</svg>
